<svg width="56" height="56" viewBox="0 0 56 56" fill="none" xmlns="http://www.w3.org/2000/svg">
  <rect width="56" height="56" rx="12" class="fill-[#0F766E]"/>
  <path d="M28 12C21.373 12 16 17.373 16 24C16 30.627 21.373 36 28 36C34.627 36 40 30.627 40 24C40 17.373 34.627 12 28 12ZM28 16C28 16 28 16 28 16C32.418 16 36 19.582 36 24C36 28.418 32.418 32 28 32C23.582 32 20 28.418 20 24C20 19.582 23.582 16 28 16Z" fill="white"/>
  <text x="28" y="50" text-anchor="middle" fill="white" font-size="10" font-family="Inter, sans-serif">CMHS</text>
</svg>
